<svg width="147" height="40" viewBox="0 0 147 40" fill="none" xmlns="http://www.w3.org/2000/svg">
<g clip-path="url(#clip0_816_41513)">
<mask id="mask0_816_41513" style="mask-type:luminance" maskUnits="userSpaceOnUse" x="0" y="0" width="146" height="40">
<path d="M145.873 0.942139H0.739258V39.058H145.873V0.942139Z" fill="white"/>
</mask>
<g mask="url(#mask0_816_41513)">
<path d="M56.5616 25.2931C53.9945 25.2931 52.1405 23.2313 52.1405 20.4333C52.1405 17.6352 53.9945 15.5735 56.5616 15.5735C58.7009 15.5735 60.3552 16.9872 60.8402 19.1078H63.8921C63.3216 15.3673 60.4123 12.7754 56.5616 12.7754C52.2831 12.7754 49.1455 16.0153 49.1455 20.4333C49.1455 24.8513 52.2831 28.091 56.5616 28.091C60.4123 28.091 63.3216 25.4992 63.8921 21.7586H60.8402C60.3552 23.8498 58.7009 25.2931 56.5616 25.2931Z" fill="#31373D"/>
<path d="M67.915 27.7965L69.0845 24.8511H76.6147L77.7841 27.7965H80.8647L75.0173 13.0698H70.7389L64.8916 27.7965H67.915ZM70.1399 22.2004L72.707 15.7207H72.9922L75.5593 22.2004H70.1399Z" fill="#31373D"/>
<path d="M89.5577 25.2929C87.2474 25.2929 85.5644 23.3785 85.5644 20.7277V13.0698H82.7119V20.7277C82.7119 24.9689 85.6216 28.0909 89.5577 28.0909C93.494 28.0909 96.4034 24.9689 96.4034 20.7277V13.0698H93.551V20.7277C93.551 23.3785 91.8681 25.2929 89.5577 25.2929Z" fill="#31373D"/>
<path d="M106.528 25.4403C104.132 25.4403 102.535 24.6155 102.535 23.3786H99.6826C99.6826 26.206 102.421 28.091 106.528 28.091C110.978 28.091 113.374 26.4122 113.374 23.2902C113.374 20.2859 111.377 18.9606 106.671 18.9606C103.961 18.9606 102.82 18.5188 102.82 17.3996C102.82 16.1037 104.104 15.4261 106.528 15.4261C108.753 15.4261 110.236 16.2509 110.236 17.4879H113.088C113.088 14.6604 110.464 12.7754 106.528 12.7754C102.25 12.7754 99.9679 14.3954 99.9679 17.3996C99.9679 20.3743 101.907 21.6114 106.414 21.6114C109.266 21.6114 110.521 22.112 110.521 23.2902C110.521 24.6745 109.124 25.4403 106.528 25.4403Z" fill="#31373D"/>
<path d="M118.254 27.7965L119.425 24.8511H126.954L128.123 27.7965H131.205L125.356 13.0698H121.079L115.231 27.7965H118.254ZM120.48 22.2004L123.047 15.7207H123.332L125.899 22.2004H120.48Z" fill="#31373D"/>
<path d="M133.917 27.7965H145.327V25.1457H136.77V13.0698H133.917V27.7965Z" fill="#31373D"/>
<path opacity="0.8" fill-rule="evenodd" clip-rule="evenodd" d="M19.1956 39.0581C29.3888 39.0581 37.6519 30.5256 37.6519 20.0001C37.6519 9.47467 29.3888 0.942139 19.1956 0.942139C9.00243 0.942139 0.739258 9.47467 0.739258 20.0001C0.739258 30.5256 9.00243 39.0581 19.1956 39.0581ZM19.1956 31.9336C25.5781 31.9336 30.7523 26.5908 30.7523 20.0001C30.7523 13.4094 25.5781 8.06662 19.1956 8.06662C12.813 8.06662 7.63881 13.4094 7.63881 20.0001C7.63881 26.5908 12.813 31.9336 19.1956 31.9336Z" fill="#555E67"/>
</g>
</g>
<defs>
<clipPath id="clip0_816_41513">
<rect width="146" height="40" fill="white" transform="translate(0.200195)"/>
</clipPath>
</defs>
</svg>
