<svg width="858" height="224" viewBox="0 0 858 224" fill="none" xmlns="http://www.w3.org/2000/svg">
<path d="M752.047 31.7602C752.047 29.4136 758.72 28.2402 772.067 28.2402C784.534 28.6802 790.767 29.6336 790.767 31.1002V115.58L812.547 75.3202C813.574 73.1202 819.807 72.0202 831.247 72.0202C842.687 72.0202 850.02 72.7536 853.247 74.2202L824.647 120.86L857.647 182.68C857.94 183.267 855.154 183.707 849.287 184C843.567 184.44 838.8 184.66 834.987 184.66C820.907 184.66 813.354 184 812.327 182.68L790.547 133.84V182.46C790.547 184.367 784.094 185.32 771.187 185.32C758.427 185.32 752.047 184.44 752.047 182.68V31.7602Z" fill="#F9FAFB"/>
<path d="M713 183.78C713 184.806 706.327 185.32 692.98 185.32C679.634 185.026 672.96 184.44 672.96 183.56V110.52H667.02C664.674 110.52 662.767 109.126 661.3 106.34C659.98 103.406 659.32 99.8131 659.32 95.5598C659.32 79.7198 664.014 71.7998 673.4 71.7998C680 71.7998 685.5 73.8531 689.9 77.9598C694.3 81.9198 696.5 86.4665 696.5 91.5998C699.58 85.5865 703.687 80.8198 708.82 77.2998C714.1 73.6331 719.454 71.7998 724.88 71.7998C733.387 71.7998 738.52 73.9998 740.28 78.3998C740.72 79.5731 740.94 81.3331 740.94 83.6798C740.94 85.8798 740.207 89.9132 738.74 95.7798C737.42 101.646 736.027 105.9 734.56 108.54C733.094 111.18 732.214 112.5 731.92 112.5C731.627 112.5 730.234 111.986 727.74 110.96C725.394 109.786 723.267 109.2 721.36 109.2C715.787 109.2 713 113.6 713 122.4V183.78Z" fill="#F9FAFB"/>
<path d="M644.924 182.68C644.924 183.853 638.177 184.44 624.684 184.44C611.337 184.44 604.664 183.927 604.664 182.9V74.88C604.664 73.8534 611.337 73.34 624.684 73.34C638.177 73.34 644.924 73.78 644.924 74.66V182.68ZM644.924 61.68C644.924 62.7067 638.177 63.22 624.684 63.22C611.337 63.22 604.664 62.78 604.664 61.9V30.22C604.664 28.7534 611.337 28.02 624.684 28.02C638.177 28.02 644.924 28.46 644.924 29.34V61.68Z" fill="#F9FAFB"/>
<path d="M553.416 75.1002C553.416 73.7802 557.449 73.1202 565.516 73.1202C583.703 73.1202 592.649 73.7068 592.356 74.8802L570.796 181.8C570.356 184.147 562.216 185.32 546.376 185.32C530.536 185.32 522.396 184.147 521.956 181.8L512.936 132.52L501.716 181.8C501.276 184 492.843 185.1 476.416 185.1C460.136 185.1 451.776 183.78 451.336 181.14L431.756 74.0002C431.316 73.1202 437.623 72.6802 450.676 72.6802C463.583 72.8268 470.036 73.1202 470.036 73.5602L480.156 147.92L498.416 74.4402C498.709 73.5602 503.549 73.1202 512.936 73.1202C522.323 73.1202 527.163 73.5602 527.456 74.4402L545.496 147.04L553.416 75.1002Z" fill="#F9FAFB"/>
<path d="M280.602 107.22C280.602 81.1134 287.128 61.3867 300.182 48.04C313.382 34.6934 330.322 28.02 351.002 28.02C371.828 28.02 388.622 34.62 401.382 47.82C414.142 60.8734 420.522 80.6734 420.522 107.22C420.522 127.607 416.562 144.033 408.642 156.5C400.722 168.967 389.868 177.547 376.082 182.24L399.402 198.3C400.282 198.887 400.722 199.913 400.722 201.38C400.722 202.993 399.035 205.927 395.662 210.18C392.435 214.433 388.475 217.66 383.782 219.86C379.235 222.207 375.788 223.38 373.442 223.38C371.095 223.38 369.188 222.573 367.722 220.96L335.602 185.32C319.175 182.24 305.902 174.027 295.782 160.68C285.662 147.187 280.602 129.367 280.602 107.22ZM350.562 70.26C343.522 70.26 337.582 73.4867 332.742 79.94C328.048 86.3934 325.702 95.4867 325.702 107.22C325.702 118.807 327.975 127.753 332.522 134.06C337.068 140.22 343.008 143.3 350.342 143.3C357.822 143.3 363.835 140.147 368.382 133.84C373.075 127.533 375.422 118.513 375.422 106.78C375.422 95.0467 373.002 86.0267 368.162 79.72C363.468 73.4134 357.602 70.26 350.562 70.26Z" fill="#F9FAFB"/>
<path fill-rule="evenodd" clip-rule="evenodd" d="M88.8611 2.88116e-06H146.139C156.486 -0.000119189 164.758 -0.000217438 171.249 0.870161C177.959 1.76999 183.51 3.68151 187.907 8.06617C192.305 12.4526 194.224 17.9945 195.127 24.6935C196 31.1699 196 39.4222 196 49.7396V163.26C196 173.578 196 181.83 195.127 188.306C194.224 195.005 192.305 200.547 187.907 204.934C183.51 209.318 177.959 211.23 171.249 212.13C164.758 213 156.486 213 146.139 213H88.8613C78.514 213 70.242 213 63.751 212.13C57.0405 211.23 51.4893 209.318 47.0931 204.934C42.6949 200.547 40.7759 195.005 39.8728 188.306C38.9998 181.83 38.9999 173.578 39 163.26V49.7399C38.9999 39.4223 38.9998 31.1699 39.8728 24.6935C40.7759 17.9945 42.6949 12.4526 47.0931 8.06617C51.4894 3.68145 57.0405 1.76998 63.751 0.870161C70.2419 -0.000217438 78.514 -0.000119189 88.8611 2.88116e-06ZM65.08 10.7815C59.4736 11.5332 56.3824 12.9249 54.1548 15.1466C51.9291 17.3664 50.5361 20.4442 49.7832 26.0295C49.0107 31.76 49 39.3366 49 50.1111V162.889C49 173.663 49.0107 181.24 49.7832 186.97C50.5361 192.556 51.929 195.633 54.1548 197.853C56.3824 200.075 59.4736 201.467 65.0801 202.219C70.829 202.989 78.4288 203 89.2308 203H145.769C156.571 203 164.171 202.989 169.92 202.219C175.526 201.467 178.617 200.075 180.845 197.853C183.071 195.633 184.464 192.556 185.217 186.97C185.989 181.24 186 173.663 186 162.889V50.1111C186 39.3366 185.989 31.76 185.217 26.0295C184.464 20.4442 183.071 17.3665 180.845 15.1467C178.617 12.9249 175.526 11.5332 169.92 10.7815C164.171 10.0106 156.571 10 145.769 10H89.2308C78.4288 10 70.829 10.0106 65.08 10.7815Z" fill="#F9FAFB"/>
<path fill-rule="evenodd" clip-rule="evenodd" d="M214.87 44.5737C210.605 44.0103 204.934 44 196.714 44H191C188.239 44 186 41.7614 186 39C186 36.2386 188.239 34 191 34H196.714C196.833 34 196.951 34 197.068 34C204.848 33.9999 211.183 33.9997 216.179 34.6599C221.386 35.3478 225.886 36.8326 229.484 40.3676C233.093 43.9149 234.621 48.3719 235.326 53.5298C236 58.4568 236 64.6968 236 72.3286V151.671C236 159.303 236 165.543 235.326 170.47C234.621 175.628 233.094 180.085 229.484 183.632L229.484 183.633C225.886 187.168 221.386 188.652 216.179 189.34C211.183 190 204.848 190 197.068 190H191C188.239 190 186 187.761 186 185C186 182.239 188.239 180 191 180H196.714C204.934 180 210.605 179.99 214.87 179.426C218.999 178.881 221.051 177.899 222.475 176.5C223.886 175.112 224.869 173.131 225.419 169.115C225.989 164.945 226 159.393 226 151.308V72.6923C226 64.6072 225.989 59.0551 225.419 54.8852C224.869 50.8686 223.886 48.8875 222.475 47.5006M214.87 44.5737C218.999 45.1192 221.051 46.1018 222.475 47.5006Z" fill="#F9FAFB"/>
<path fill-rule="evenodd" clip-rule="evenodd" d="M38.0682 34L44 34C46.7614 34 49 36.2386 49 39C49 41.7614 46.7614 44 44 44H38.4286C30.407 44 24.8977 44.0108 20.7599 44.5715C16.77 45.1122 14.8104 46.0795 13.4449 47.4558C12.074 48.8375 11.107 50.8285 10.568 54.8686C10.0105 59.0486 10 64.6107 10 72.6923V151.308C10 159.389 10.0105 164.951 10.568 169.131C11.107 173.171 12.074 175.163 13.4452 176.545C14.8106 177.921 16.7702 178.888 20.7598 179.429C24.8976 179.989 30.407 180 38.4286 180H44C46.7614 180 49 182.239 49 185C49 187.761 46.7614 190 44 190H38.0685C30.4958 190 24.3051 190 19.4171 189.338C14.304 188.645 9.87629 187.146 6.34628 183.588C2.8219 180.035 1.3408 175.588 0.655847 170.454C-0.000279844 165.535 -0.000152049 159.302 4.83043e-06 151.664V72.3362C-0.000152049 64.6978 -0.000279844 58.4651 0.655848 53.5464C1.34079 48.4117 2.82151 43.9649 6.34612 40.4125C9.87611 36.8547 14.3039 35.3549 19.4171 34.6621C24.305 33.9997 30.4957 33.9998 38.0682 34Z" fill="#F9FAFB"/>
<path fill-rule="evenodd" clip-rule="evenodd" d="M85 61C85 58.2386 87.2386 56 90 56H146C148.761 56 151 58.2386 151 61C151 63.7614 148.761 66 146 66H90C87.2386 66 85 63.7614 85 61ZM85 106.5C85 103.739 87.2386 101.5 90 101.5H146C148.761 101.5 151 103.739 151 106.5C151 109.261 148.761 111.5 146 111.5H90C87.2386 111.5 85 109.261 85 106.5ZM85 152C85 149.239 87.2386 147 90 147H146C148.761 147 151 149.239 151 152C151 154.761 148.761 157 146 157H90C87.2386 157 85 154.761 85 152Z" fill="#F9FAFB"/>
</svg>
