<svg width="141" height="40" viewBox="0 0 141 40" fill="none" xmlns="http://www.w3.org/2000/svg">
<mask id="mask0_816_41268" style="mask-type:luminance" maskUnits="userSpaceOnUse" x="0" y="4" width="140" height="35">
<path d="M139.863 4H0.940918V38.1877H139.863V4Z" fill="white"/>
</mask>
<g mask="url(#mask0_816_41268)">
<path d="M99.9689 15.4486C97.9267 15.4486 96.4692 16.1412 95.7538 17.4527L95.3694 18.163V15.7905H92.0462V30.2112H95.5416V21.6318C95.5416 19.5821 96.6636 18.4061 98.6184 18.4061C100.482 18.4061 101.551 19.5511 101.551 21.5464V30.2112H105.048V20.9275C105.048 17.494 103.15 15.4486 99.9689 15.4486ZM83.0178 15.4486C78.8932 15.4486 76.3388 18.0038 76.3388 22.1167V24.1414C76.3388 28.0966 78.9229 30.5531 83.0831 30.5531C85.866 30.5531 87.8162 29.5407 89.0437 27.4585L86.8767 26.2207C85.9699 27.4217 84.5213 28.1658 83.0846 28.1658C80.9785 28.1658 79.7214 26.8749 79.7214 24.7117V24.1385H89.4771V21.7468C89.4771 17.9154 86.9436 15.4486 83.0208 15.4486H83.0178ZM86.2965 21.8072H79.7095V21.4609C79.7095 19.0869 80.8835 17.7769 83.0148 17.7769C85.0675 17.7769 86.2934 19.0678 86.2934 21.231L86.2965 21.8072ZM139.76 13.4165V10.6579H127.67V13.4165H131.909V27.4467H127.67V30.2053H139.76V27.4467H135.52V13.4165H139.76ZM48.0869 10.26C42.6874 10.26 39.3301 13.6007 39.3301 18.9808V21.8897C39.3301 27.2684 42.6859 30.6105 48.0869 30.6105C53.488 30.6105 56.8438 27.2684 56.8438 21.8897V18.9808C56.8423 13.5948 53.4821 10.26 48.0869 10.26ZM53.2312 22.0887C53.2312 25.6607 51.3567 27.709 48.0869 27.709C44.8173 27.709 42.9442 25.6607 42.9442 22.0887V18.7804C42.9442 15.2084 44.8202 13.1601 48.0884 13.1601C51.3567 13.1601 53.2327 15.2084 53.2327 18.7804L53.2312 22.0887ZM67.8225 15.4486C65.988 15.4486 64.3998 16.2031 63.5717 17.466L63.1961 18.0407V15.7905H59.8716V35.1728H63.3684V28.1526L63.7424 28.7037C64.529 29.8619 66.0651 30.5531 67.8522 30.5531C70.8665 30.5531 73.9078 28.5976 73.9078 24.2269V21.7748C73.9078 18.6257 72.0332 15.4486 67.8225 15.4486ZM70.411 24.0574C70.411 26.3813 69.0454 27.8254 66.8488 27.8254C64.8006 27.8254 63.3713 26.2988 63.3713 24.1149V21.9457C63.3713 19.7353 64.8125 18.1792 66.8785 18.1792C69.0588 18.1792 70.4139 19.6218 70.4139 21.9457L70.411 24.0574ZM114.71 10.6594L107.656 30.2112H111.207L112.558 26.0203H120.668L120.681 26.0615L122.016 30.2112H125.567L118.501 10.6579L114.71 10.6594ZM113.425 23.2631L116.607 13.3782L119.756 23.2631H113.425Z" fill="#31373D"/>
<path d="M32.4923 18.017C32.875 16.8763 33.0077 15.6677 32.8818 14.4719C32.7559 13.2762 32.3741 12.121 31.762 11.0836C30.8533 9.51584 29.4671 8.27469 27.8029 7.5388C26.1386 6.80291 24.2821 6.61023 22.5005 6.98849C21.697 6.08876 20.7092 5.36984 19.6031 4.87986C18.4971 4.38988 17.2983 4.14014 16.0873 4.14737C14.2651 4.14325 12.4887 4.71391 11.0143 5.77703C9.53995 6.84014 8.44381 8.34076 7.88403 10.0624C6.69773 10.304 5.57708 10.7944 4.59701 11.5006C3.61695 12.2068 2.80005 13.1127 2.20098 14.1576C1.28755 15.7228 0.897876 17.5354 1.08804 19.3345C1.27821 21.1336 2.03841 22.8264 3.25922 24.1693C2.878 25.3089 2.74595 26.5162 2.87186 27.7105C2.99778 28.9048 3.37879 30.0587 3.98946 31.0952C4.89723 32.6661 6.28409 33.91 7.94999 34.6476C9.61589 35.3852 11.4747 35.5784 13.2584 35.1992C14.0612 36.0979 15.0478 36.8161 16.1525 37.3061C17.2571 37.796 18.4544 38.0463 19.6642 38.0404C21.4863 38.0445 23.2627 37.4738 24.7372 36.4107C26.2115 35.3476 27.3076 33.847 27.8674 32.1253C29.0535 31.8836 30.1739 31.3932 31.1537 30.687C32.1335 29.9808 32.9501 29.0749 33.549 28.0301C34.4647 26.4654 34.8559 24.6522 34.666 22.8524C34.476 21.0525 33.7148 19.3592 32.4923 18.017ZM19.6642 35.8299C18.1677 35.8312 16.7186 35.3096 15.5708 34.3563C15.6212 34.3283 15.7191 34.2797 15.7755 34.2429L22.5732 30.3466C22.7438 30.2505 22.8854 30.1109 22.9835 29.9422C23.0816 29.7736 23.1326 29.5821 23.1313 29.3873V19.8708L26.0033 21.5168C26.0188 21.5241 26.0321 21.5353 26.042 21.5492C26.0519 21.5631 26.058 21.5794 26.0597 21.5964V29.4728C26.0597 31.1575 25.3861 32.7734 24.1869 33.9654C22.9878 35.1574 21.361 35.828 19.6642 35.8299ZM5.9219 30.0033C5.17254 28.7175 4.902 27.2112 5.15753 25.7475C5.20799 25.7785 5.29705 25.8315 5.35938 25.8669L12.1585 29.7646C12.3278 29.863 12.5205 29.9149 12.7166 29.9149C12.9128 29.9149 13.1054 29.863 13.2747 29.7646L21.5699 25.0019V28.2939C21.5714 28.3108 21.5686 28.3279 21.5616 28.3433C21.5545 28.3588 21.5436 28.3723 21.5298 28.3823L14.658 32.3198C13.1887 33.1598 11.4437 33.3868 9.80599 32.9512C8.16827 32.5155 6.77144 31.4527 5.9219 29.9959V30.0033ZM4.14085 15.2672C4.8867 13.9795 6.06525 12.9935 7.46993 12.4821V20.5044C7.46893 20.6991 7.52009 20.8905 7.61815 21.0591C7.71621 21.2277 7.85766 21.3673 8.02799 21.4637L16.3248 26.2205L13.4424 27.8725C13.4284 27.8819 13.4122 27.8876 13.3952 27.8891C13.3784 27.8907 13.3615 27.888 13.3459 27.8813L6.4755 23.9423C5.00751 23.0991 3.93652 21.712 3.49767 20.0855C3.05884 18.459 3.28802 16.7261 4.13491 15.2672H4.14085ZM27.7398 20.7196L19.443 15.9628L22.312 14.3153C22.3261 14.306 22.3424 14.3003 22.3592 14.2988C22.376 14.2973 22.3929 14.2999 22.4085 14.3064L29.2789 18.2454C30.3312 18.8491 31.1885 19.7379 31.7506 20.8078C32.3125 21.8777 32.5559 23.0844 32.4522 24.2866C32.3484 25.4889 31.9019 26.6369 31.1649 27.5964C30.4279 28.5558 29.4308 29.2869 28.2904 29.7042V21.6833C28.2927 21.4882 28.2424 21.2959 28.1448 21.1265C28.0472 20.9571 27.9059 20.8166 27.7354 20.7196H27.7398ZM30.5998 16.4461C30.5494 16.4152 30.4603 16.3621 30.398 16.3267L23.5988 12.429C23.4295 12.3306 23.2369 12.2787 23.0407 12.2787C22.8446 12.2787 22.652 12.3306 22.4828 12.429L14.186 17.1844V13.8938C14.1854 13.8769 14.1888 13.86 14.1961 13.8447C14.2033 13.8293 14.2141 13.8158 14.2275 13.8054L21.098 9.86792C22.1507 9.26543 23.3544 8.97309 24.5683 9.02509C25.7823 9.0771 26.9562 9.4713 27.9527 10.1616C28.9492 10.8518 29.7272 11.8096 30.1954 12.9228C30.6637 14.036 30.803 15.2587 30.5969 16.4476L30.5998 16.4461ZM12.6201 22.317L9.74671 20.6709C9.73195 20.6628 9.71929 20.6514 9.70976 20.6376C9.70023 20.6238 9.69408 20.608 9.69179 20.5914V12.7149C9.69087 11.5077 10.0366 10.3253 10.6884 9.30619C11.3402 8.2871 12.271 7.47361 13.3719 6.96106C14.4727 6.44851 15.698 6.25816 16.9039 6.4123C18.1098 6.56645 19.2465 7.05871 20.1807 7.83139C20.1302 7.85939 20.0397 7.90802 19.9758 7.94486L13.1782 11.8411C13.0079 11.9375 12.8665 12.0771 12.7684 12.2457C12.6703 12.4143 12.6191 12.6057 12.6201 12.8004V22.317ZM14.18 18.9763L17.8757 16.8572L21.5699 18.9763V23.2114L17.8742 25.3305L14.1785 23.2114L14.18 18.9763Z" fill="#31373D"/>
</g>
</svg>
