<svg width="127" height="40" viewBox="0 0 127 40" fill="none" xmlns="http://www.w3.org/2000/svg">
<mask id="mask0_816_41492" style="mask-type:luminance" maskUnits="userSpaceOnUse" x="1" y="2" width="126" height="33">
<path d="M126.26 2H1.1875V34.3307H126.26V2Z" fill="white"/>
</mask>
<g mask="url(#mask0_816_41492)">
<path d="M32.776 14.253C32.7746 17.4701 31.5558 20.5592 29.3799 22.8607C27.204 25.1622 24.2434 26.4938 21.1302 26.571V13.4941H8.9917C9.19823 10.3113 10.5919 7.33534 12.8794 5.19265C15.1669 3.04994 18.1698 1.90753 21.256 2.00586C24.3424 2.10419 27.2713 3.43558 29.4266 5.71983C31.582 8.00407 32.7597 11.0631 32.776 14.253Z" fill="#555E67"/>
<path d="M21.1279 13.4941V26.5711H20.9219C19.3565 26.5711 17.8065 26.2524 16.3603 25.6333C14.9142 25.0141 13.6004 24.1066 12.4939 22.9627C11.3874 21.8187 10.51 20.4607 9.9117 18.9662C9.3135 17.4718 9.00618 15.8702 9.00733 14.253C9.00733 14.0032 9.00733 13.744 9.00733 13.4941H21.1279Z" fill="#F7F7F7"/>
<path d="M21.1287 26.5711V34.0305H1.1875V13.4941H8.99021C8.99021 13.744 8.99021 14.0032 8.99021 14.253C8.98901 15.8702 9.29633 17.4718 9.89454 18.9662C10.4928 20.4607 11.3702 21.8187 12.4767 22.9627C13.5832 24.1066 14.897 25.0141 16.3432 25.6333C17.7893 26.2524 19.3394 26.5711 20.9047 26.5711H21.1287Z" fill="#31373D"/>
<path d="M47.0454 10.2109H57.0726C62.2152 10.2109 65.429 12.5219 65.429 17.3562C65.429 22.1905 62.2152 24.7405 56.8673 24.7405H51.4229V32.4037H47.0454V10.2109ZM56.6359 20.8358C59.4578 20.8358 61.0197 19.9526 61.0197 17.5156C61.0197 14.9988 59.4256 14.1156 56.7834 14.1156H51.4549V20.8026L56.6359 20.8358Z" fill="#31373D"/>
<path d="M65.1562 28.4193C65.1562 26.0818 66.6603 24.6807 69.3665 23.9236L76.2893 21.9846L76.469 21.9315C76.469 21.9315 76.469 21.792 76.469 21.7323C76.469 19.8463 75.3768 18.9963 73.4356 18.9963C71.4944 18.9963 69.932 20.0588 69.0257 22.6752L65.4648 21.3072C66.8724 17.3893 69.8486 15.8687 73.6154 15.8687C78.3206 15.8687 80.8211 18.3256 80.8211 21.6393V27.3236C80.8211 28.5123 81.2 29.1498 82.1708 29.1498C82.6847 29.1378 83.1892 29.0013 83.6431 28.7513V32.0716C82.6414 32.484 81.5773 32.7089 80.4995 32.7356C78.2884 32.7356 76.5848 31.4939 76.5848 29.09V28.7579H76.469C75.9323 29.9862 75.0568 31.0241 73.9531 31.742C72.8487 32.46 71.5641 32.8263 70.2603 32.7954C66.8661 32.7423 65.1562 30.5177 65.1562 28.4193ZM71.5454 29.3291C72.7055 29.2835 73.8254 28.8786 74.7598 28.167C75.3028 27.7618 75.7447 27.2289 76.0485 26.6122C76.3529 25.9956 76.5103 25.3129 76.5076 24.6209C76.5076 24.5811 76.5076 24.3486 76.5076 24.3486L76.2507 24.435L71.3786 26.1681C70.2603 26.5666 69.4953 26.872 69.4953 27.7486C69.4822 28.5123 70.0992 29.3291 71.5454 29.3291Z" fill="#31373D"/>
<path d="M85.3833 10.2109H89.7864V32.4037H85.377L85.3833 10.2109Z" fill="#31373D"/>
<path d="M92.2759 10.2109H96.692V32.4037H92.2759V10.2109Z" fill="#31373D"/>
<path d="M106.499 32.7424C101.324 32.7424 98.1426 29.4222 98.1426 24.5082C98.1426 19.375 101.472 15.8157 106.621 15.8157C111.622 15.8157 114.945 19.0098 114.945 25.0593H102.494C102.699 27.5628 103.876 29.3691 106.763 29.3691C108.91 29.3691 110.728 28.3664 111.32 26.1218L114.906 27.2773C113.57 31.1222 110.292 32.7424 106.499 32.7424ZM110.414 22.35C109.957 20.1321 108.588 19.0961 106.621 19.0961C105.684 19.0243 104.756 19.3191 104.02 19.9219C103.284 20.5248 102.794 21.3915 102.648 22.35H110.414Z" fill="#31373D"/>
<path d="M123.461 29.3619C121.668 29.3619 121.076 28.7842 121.076 26.7456V19.4609H125.782V16.207H114.212V19.4609H116.712V28.5186C116.712 31.1748 117.998 32.7088 121.777 32.7088C123.181 32.7246 124.582 32.5821 125.955 32.2838V29.0963C125.133 29.2565 124.298 29.3454 123.461 29.3619Z" fill="#31373D"/>
<path d="M116.66 10.2109C116.84 11.3595 117.365 12.4205 118.161 13.2431C118.957 14.0657 119.984 14.608 121.096 14.7929V10.2109H116.66Z" fill="#31373D"/>
</g>
</svg>
