<svg width="83" height="40" viewBox="0 0 83 40" fill="none" xmlns="http://www.w3.org/2000/svg">
<g clip-path="url(#clip0_816_41539)">
<mask id="mask0_816_41539" style="mask-type:luminance" maskUnits="userSpaceOnUse" x="1" y="0" width="82" height="40">
<path d="M82.2108 0H1.22314V40H82.2108V0Z" fill="white"/>
</mask>
<g mask="url(#mask0_816_41539)">
<path d="M40.2133 29.2837L40.1935 29.3252C39.0426 31.5201 37.2171 32.5871 34.6096 32.5871C31.2323 32.5871 28.7805 30.2208 28.7805 26.9654C28.7805 23.8104 31.1583 21.5762 34.8359 21.2696L40.0101 20.8344L40.0786 20.8289V19.5612C40.0786 17.7077 39.0382 16.727 37.0691 16.727C35.1054 16.727 33.874 17.7274 33.8375 19.3409H29.4066C29.5823 15.6491 32.5796 13.3592 37.2513 13.3592C41.8191 13.3592 44.4388 15.6448 44.4388 19.6332V28.7819H47.5941V32.1518H40.5192L40.4828 29.359V29.2837H40.2133ZM40.0786 24.9341V24.1257L35.8774 24.4846C35.7802 24.4966 33.5139 24.7563 32.9827 25.7392C32.7431 26.1811 32.7 26.7385 32.8646 27.2698C32.9982 27.7062 33.3339 28.3215 34.1622 28.7535C34.5554 28.9957 35.0755 29.1441 35.7062 29.1964L35.7736 29.2052C35.8067 29.2106 35.8421 29.215 35.8785 29.2182L35.9271 29.2128C36.0253 29.2161 36.1226 29.2182 36.2253 29.2182C38.4948 29.2182 40.0786 27.4564 40.0786 24.9341ZM12.3247 7.5347C12.392 7.54234 12.4583 7.55216 12.5136 7.56307C14.4319 7.81289 16.1924 8.74347 17.4647 10.1791C20.2356 13.308 20.0799 18.0132 17.1079 20.9576C15.6147 22.4348 13.586 23.2661 11.4699 23.2661C11.3936 23.2661 11.3208 23.2617 11.2467 23.2562C11.2048 23.2541 11.1628 23.2508 11.1209 23.2497H5.8672V32.1551H1.22314V7.48779H11.4887L11.5074 7.48997C11.7725 7.48997 12.0386 7.50307 12.3049 7.53034L12.3247 7.5347ZM13.7041 11.5352H5.8672V19.2896H13.7041V11.5319V11.5352Z" fill="#31373D"/>
<path d="M21.644 32.181H26.1081V7.41333H21.644V32.181ZM49.8176 11.8731H54.2507V7.48751H49.8176V11.8731ZM73.4431 32.1504V20.1064C73.4431 15.6914 71.3514 13.359 67.3921 13.359C64.9138 13.359 63.1236 14.3681 61.9187 16.442L61.775 16.6874V13.7932H57.3442V32.1504H61.7773V21.5203C61.7773 18.7198 63.392 16.9089 65.889 16.9089C67.9885 16.9089 69.0101 18.0598 69.0101 20.4315V32.1515L73.4431 32.1504ZM76.4627 32.1504H82.2101V26.4655H76.4627V32.1504ZM54.2396 32.181H49.7756V13.8401H54.2396V32.181Z" fill="#31373D"/>
</g>
</g>
<defs>
<clipPath id="clip0_816_41539">
<rect width="82" height="40" fill="white" transform="translate(0.600098)"/>
</clipPath>
</defs>
</svg>
